<?xml version="1.0" standalone="no"?>
<!DOCTYPE svg PUBLIC "-//W3C//DTD SVG 20010904//EN"
 "http://www.w3.org/TR/2001/REC-SVG-20010904/DTD/svg10.dtd">
<svg version="1.0" xmlns="http://www.w3.org/2000/svg"
 width="2048.000000pt" height="2048.000000pt" viewBox="0 0 2048.000000 2048.000000"
 preserveAspectRatio="xMidYMid meet">
<metadata>
Created by potrace 1.16, written by Peter Selinger 2001-2019
</metadata>
<g transform="translate(0.000000,2048.000000) scale(0.100000,-0.100000)"
fill="#000000" stroke="none">
<path d="M9670 20469 l-145 -8 -180 -16 -180 -16 -194 -25 -194 -25 -174 -29
-175 -30 -141 -29 -142 -30 -128 -30 -128 -31 -162 -45 -162 -46 -175 -59
-175 -58 -151 -61 -152 -60 -153 -71 -154 -70 -130 -72 -130 -71 -105 -65
-105 -66 -85 -60 -85 -60 -97 -79 -98 -78 -108 -108 -107 -107 -57 -69 -56
-70 -65 -97 -65 -98 -46 -93 -45 -92 -35 -105 -34 -105 -16 -94 -16 -95 0
-1088 0 -1088 2560 0 2560 0 0 -255 0 -255 -3903 0 -3903 0 -95 -16 -94 -16
-78 -25 -78 -24 -81 -35 -81 -34 -91 -54 -92 -54 -79 -60 -80 -59 -85 -76 -85
-77 -88 -97 -88 -98 -73 -95 -73 -95 -70 -105 -70 -105 -77 -133 -77 -134 -49
-99 -50 -99 -46 -102 -46 -103 -50 -125 -50 -125 -44 -124 -45 -124 -50 -166
-51 -166 -48 -190 -48 -190 -41 -205 -41 -205 -24 -155 -25 -155 -20 -165 -21
-165 -14 -165 -15 -165 -12 -220 -12 -220 6 -440 6 -440 11 -135 10 -135 21
-195 20 -195 25 -175 25 -175 29 -155 28 -155 42 -189 42 -190 54 -194 54
-194 59 -176 59 -177 61 -151 60 -152 71 -153 70 -154 72 -130 71 -130 65
-105 66 -105 60 -85 60 -85 77 -95 77 -96 109 -109 109 -110 69 -57 70 -56 97
-65 98 -65 94 -46 93 -46 104 -34 104 -34 94 -16 95 -16 1086 0 1087 0 6 438
7 437 10 200 10 200 15 220 16 220 15 145 14 145 21 165 20 165 29 170 28 170
37 167 36 168 49 174 49 174 52 139 51 138 53 117 53 117 67 118 67 118 63 90
63 90 80 96 81 96 78 73 78 73 75 60 75 60 105 69 105 69 140 69 140 68 135
50 135 50 130 35 130 35 147 31 148 31 172 24 173 25 160 15 160 15 160 11
160 10 260 10 260 10 1235 5 1235 6 380 10 380 10 170 10 170 9 175 15 175 15
155 20 155 20 145 26 145 25 141 34 140 35 150 51 149 50 120 58 120 57 82 52
82 51 78 59 78 59 89 89 88 88 63 81 62 80 47 73 46 72 45 83 44 82 49 115 50
116 32 89 31 90 44 153 44 154 40 191 40 192 25 165 25 165 20 175 20 175 21
265 20 265 11 210 12 210 4 1746 5 1746 -17 94 -16 94 -24 82 -25 82 -35 82
-35 82 -54 91 -54 92 -60 79 -59 80 -76 85 -77 85 -97 88 -98 88 -95 73 -95
73 -93 62 -93 63 -117 70 -117 70 -200 98 -200 98 -175 70 -175 70 -147 50
-147 51 -193 55 -193 55 -130 32 -130 31 -170 34 -170 35 -150 25 -150 24
-190 25 -190 24 -175 15 -175 16 -185 10 -185 10 -390 -1 -390 -2 -145 -8z
m-2020 -1630 l85 -21 82 -38 81 -38 49 -33 48 -32 53 -45 53 -45 54 -66 53
-66 32 -55 33 -55 30 -75 29 -75 19 -90 19 -90 0 -95 0 -95 -19 -90 -19 -90
-29 -75 -30 -75 -33 -55 -32 -55 -53 -66 -54 -66 -53 -45 -53 -45 -48 -32 -49
-33 -81 -38 -82 -37 -60 -16 -60 -16 -90 -11 -90 -12 -75 7 -75 6 -85 20 -85
20 -100 48 -100 49 -65 50 -65 49 -53 58 -53 58 -41 60 -40 60 -34 72 -33 72
-23 79 -23 79 0 165 0 165 23 79 23 79 33 72 34 72 40 60 41 60 53 58 53 58
65 49 65 50 100 48 100 49 65 16 64 17 61 8 60 9 100 -5 100 -4 85 -21z"/>
<path d="M15867 14928 l-7 -433 -10 -200 -10 -200 -16 -220 -15 -220 -20 -190
-20 -190 -24 -171 -25 -171 -29 -159 -29 -159 -22 -95 -21 -95 -25 -95 -25
-95 -40 -130 -41 -130 -55 -140 -55 -140 -74 -145 -73 -145 -79 -120 -79 -120
-63 -80 -64 -79 -80 -84 -81 -85 -100 -82 -100 -82 -90 -60 -90 -61 -93 -51
-93 -51 -97 -44 -97 -43 -95 -36 -95 -37 -134 -40 -135 -40 -155 -35 -156 -34
-155 -25 -155 -25 -180 -21 -180 -20 -200 -15 -200 -15 -215 -10 -215 -11
-685 -9 -685 -9 -780 -1 -780 0 -280 -10 -280 -10 -170 -10 -170 -11 -150 -14
-150 -15 -115 -15 -115 -16 -135 -25 -135 -25 -152 -39 -153 -40 -122 -46
-123 -47 -90 -44 -90 -45 -60 -36 -60 -36 -73 -54 -74 -53 -61 -57 -62 -56
-73 -81 -74 -80 -81 -120 -80 -120 -73 -150 -72 -150 -50 -135 -50 -135 -41
-145 -41 -145 -30 -135 -30 -136 -30 -173 -29 -173 -25 -201 -26 -202 -15
-165 -15 -165 -15 -250 -15 -250 -10 -325 -10 -325 0 -1541 0 -1540 16 -95 16
-94 34 -104 34 -104 46 -93 46 -94 63 -95 64 -95 63 -77 62 -76 104 -104 103
-103 97 -78 97 -78 85 -60 85 -60 105 -66 105 -65 130 -71 130 -72 154 -70
153 -71 127 -51 126 -50 135 -48 135 -48 170 -50 170 -51 159 -41 159 -41 247
-49 247 -50 244 -34 244 -35 215 -20 215 -20 220 -12 220 -11 435 5 435 5 200
16 200 17 170 20 170 20 170 25 170 25 180 35 180 36 130 29 130 29 150 41
150 41 173 54 173 55 172 66 172 66 132 58 131 58 100 50 100 50 134 77 133
77 130 88 130 88 106 85 106 84 106 105 105 105 84 105 84 106 61 103 62 103
35 83 36 83 24 82 25 82 16 89 15 89 0 1088 0 1089 -2560 0 -2560 0 0 255 0
255 3904 0 3903 0 89 15 89 16 82 25 82 24 83 36 83 35 103 62 103 61 106 84
105 84 105 105 105 106 85 106 85 106 103 155 104 155 84 152 84 151 72 158
73 159 40 100 40 100 54 147 53 146 51 169 51 168 45 173 44 173 50 247 49
247 26 172 25 173 20 172 19 173 18 205 18 205 0 555 -1 555 -17 209 -18 209
-20 169 -19 169 -26 172 -25 172 -45 226 -44 227 -49 193 -49 194 -51 166 -50
166 -44 124 -44 124 -63 155 -62 155 -98 200 -98 200 -70 117 -70 117 -63 93
-62 93 -73 95 -73 95 -88 98 -88 97 -85 77 -85 76 -80 59 -79 60 -92 54 -91
54 -82 35 -82 35 -82 24 -82 25 -89 16 -89 15 -1087 0 -1087 0 -6 -432z
m-2587 -11449 l85 -20 100 -48 100 -48 62 -47 61 -46 58 -63 58 -62 47 -72 47
-72 32 -78 33 -78 18 -90 19 -90 0 -105 0 -105 -19 -90 -18 -90 -33 -78 -32
-78 -47 -72 -47 -72 -58 -62 -57 -62 -68 -51 -69 -50 -94 -45 -94 -44 -85 -20
-84 -19 -70 -7 -71 -7 -96 11 -97 11 -83 26 -83 26 -60 31 -60 30 -45 30 -45
30 -57 50 -58 49 -49 61 -49 62 -32 55 -33 55 -30 75 -29 75 -19 90 -19 90 0
91 0 92 16 82 15 83 29 78 28 77 37 64 37 63 49 62 49 61 58 49 57 50 45 30
45 30 60 31 60 30 85 26 85 27 65 9 65 9 100 -5 100 -4 85 -21z"/>
</g>
</svg>
